<?xml version="1.0" encoding="iso-8859-1"?>
<!-- Generator: Adobe Illustrator 19.0.0, SVG Export Plug-In . SVG Version: 6.00 Build 0)  -->
<svg version="1.1" id="Capa_1" xmlns="http://www.w3.org/2000/svg" xmlns:xlink="http://www.w3.org/1999/xlink" x="0px" y="0px"
	 viewBox="0 0 512.016 512.016" style="enable-background:new 0 0 512.016 512.016;" xml:space="preserve">
<g>
	<g>
		<path d="M91.336,292.712l-52.704-52.704l52.672-52.672c6.272-6.272,6.272-16.384,0.032-22.656l-64-64
			c-6.24-6.24-16.384-6.24-22.624,0c-6.24,6.24-6.24,16.384,0,22.624l52.672,52.704L4.68,228.68c-6.24,6.24-6.24,16.384,0,22.624
			l52.704,52.704L4.712,356.68c-6.24,6.24-6.24,16.384,0,22.624c3.104,3.136,7.2,4.704,11.296,4.704s8.192-1.568,11.328-4.672l64-64
			C97.576,309.096,97.576,298.952,91.336,292.712z"/>
	</g>
</g>
<g>
	<g>
		<path d="M507.336,356.712l-52.704-52.704l52.672-52.672c6.272-6.272,6.272-16.384,0.032-22.656l-52.704-52.672l52.672-52.672
			c6.24-6.24,6.24-16.384,0-22.624c-6.24-6.24-16.384-6.24-22.624,0l-64,64c-6.24,6.24-6.24,16.384,0,22.624l52.704,52.672
			l-52.672,52.672c-6.24,6.24-6.24,16.384,0,22.624l64,64c3.104,3.136,7.2,4.704,11.296,4.704s8.192-1.568,11.328-4.672
			C513.576,373.096,513.576,362.952,507.336,356.712z"/>
	</g>
</g>
<g>
	<g>
		<path d="M352.008,64.008h-192c-17.632,0-32,14.368-32,32v320c0,17.664,14.368,32,32,32h192c17.664,0,32-14.336,32-32v-320
			C384.008,78.376,369.672,64.008,352.008,64.008z M352.008,384.008h-192v-256h192V384.008z"/>
	</g>
</g>
<g>
</g>
<g>
</g>
<g>
</g>
<g>
</g>
<g>
</g>
<g>
</g>
<g>
</g>
<g>
</g>
<g>
</g>
<g>
</g>
<g>
</g>
<g>
</g>
<g>
</g>
<g>
</g>
<g>
</g>
</svg>
